<svg height="512" viewBox="0 0 1000 1000" version="1.1" xmlns="http://www.w3.org/2000/svg">
    <path d="M307.3892 96.1738c26.0444-19.0051 58.8125-28.3778 90.9691-26.506 33.0459 1.7038 65.2215 15.5395 89.2661 38.2491 28.211 26.2102 44.8444 64.2185 44.9754 102.7274-12.614 0.6855-25.2099 1.2971-37.8259 1.9077-0.054-27.8391-11.0789-55.6603-31.1941-75.0731-21.0986-21.2276-51.755-32.3411-81.559-29.7658-29.9539 2.2225-58.5167 18.2636-76.0026 42.6581-22.5986 30.3964-26.0814 73.1474-9.2431 107.0074-11.6706 4.9077-23.3391 9.7984-35.0107 14.69-13.9661-29.5819-17.319-63.9606-9.1871-95.6531C260.6909 144.3511 280.4563 115.3818 307.3892 96.1738zM667.3059 185.3054c22.5436-15.1887 48.1054-25.5437 74.4636-31.9523 13.0227-2.908 26.0094 10.0582 22.0619 23.0794-5.1477 18.5055-13.2995 36.1015-17.9296 54.7909-6.7987 21.3955-11.022 43.6594-11.4847 66.1452 39.196 16.19 74.5395 43.4545 96.8963 79.7969 15.9688 23.8208 26.1374 51.2533 31.2691 79.3902 17.4679 2.889 35.6213-1.6319 52.7754 3.4816 19.8004 6.1119 34.2682 25.5797 34.507 46.3076 0.1479 31.7105 0.2039 63.44-0.019 95.1525-0.3508 22.4118-17.7457 43.0098-39.7507 47.139-14.6717 2.5023-29.6561-0.018-44.3827 1.538-6.0741 0.7415-8.1318 7.4849-10.8531 12.0039-18.3763 37.7874-46.0127 71.3127-80.7646 95.1145-8.1488 6.0019-17.318 10.4309-25.5977 16.263 4.1304 12.2447 9.8357 23.9877 12.9468 36.5652 5.2417 23.3012-8.2977 48.8269-30.4166 57.6979-20.5239 8.0765-41.2337 15.7083-61.8496 23.544-25.044 10.5389-56.6639-2.4453-66.6495-27.7842-5.7234-12.9862-10.1875-26.4711-15.1154-39.752-9.7788 0.057-19.4496 1.6139-29.1744 2.4094-26.5621 2.3154-53.2741 3.3907-79.9291 2.0006-21.934-0.6296-43.4753-5.0935-64.9626-9.2247-7.3913 15.8922-12.0403 32.9147-19.5246 48.7529-11.058 21.6333-38.5654 32.7298-61.5168 24.6153-21.1165-7.5939-42.0112-15.7803-62.9989-23.7079-16.1527-6.0189-28.7307-20.4871-32.2505-37.3607-2.2416-10.2071-1.1663-20.9498 2.7043-30.6212 5.9462-14.76 11.7445-29.6359 16.5794-44.8056 1.519-3.1469-2.0747-5.1855-3.9085-7.0582-37.5291-30.2475-70.705-67.6821-89.3211-112.5997-12.504-27.2665-17.4489-57.6629-16.2457-87.5396-0.5746-25.005 2.4075-49.9571 7.6501-74.3876-25.8775-9.5395-50.6068-25.8595-64.6478-50.16-14.5397-25.2289-16.3566-57.3291-5.0378-84.113 7.7601-18.3566 22.2468-34.1748 40.7331-42.0095 8.4466-3.6315 19.1158-0.7975 23.8768 7.2431 6.3719 9.7434 1.0004 23.0594-9.2241 27.6163-24.0437 11.6511-30.3237 43.9172-20.1352 66.9226 8.1688 18.9861 26.9518 30.7112 45.4201 38.0842 14.9675-38.9336 38.9742-74.7024 71.3336-101.2823 36.7326-30.1935 79.2625-53.2539 124.3878-68.1278 39.6957-12.8373 81.2812-19.5787 122.9777-20.4491 39.6417-1.538 79.5243 2.0006 118.3296 10.28C617.5686 229.1127 639.9653 203.57 667.3059 185.3054zM635.87 276.4026c-4.3153 8.1105-7.927 18.0218-17.4849 21.2246-10.2825 2.4094-20.394-2.0006-30.4336-3.6485-60.3705-11.5382-123.2035-11.5562-183.2942 1.8158-52.1258 11.8-101.5093 35.6568-142.9469 69.4609-31.9167 26.1543-54.4593 62.6995-66.0929 102.1168-10.2435 33.5812-12.1143 69.0342-10.4463 103.9125 1.5 16.8546 5.2606 33.6562 12.3361 49.0857 14.2449 34.8244 38.9742 64.3494 66.9633 89.0406 8.3357 7.5019 18.2274 13.6517 24.2655 23.3762 6.9286 10.7247 7.2244 24.5434 3.3349 36.4343-5.3346 15.5964-11.3368 30.952-17.264 46.3076-2.9081 6.8534 1.0563 15.2617 8.0209 17.671 19.6165 7.6318 39.3819 14.9309 59.0724 22.3938 6.6318 3.2238 15.671 0.7415 18.6531-6.2608 7.0205-16.0961 11.8734-33.1185 19.5975-48.8998 5.6504-11.8929 18.3383-20.0804 31.6019-19.4488 15.1154 0.8324 29.6931 5.4273 44.6805 7.2231 37.5471 4.7048 75.5569 2.7042 113.067-1.2232 8.0039-0.7955 16.0788-1.7958 24.0986-0.8154 11.2828 1.2991 21.7122 8.5402 26.639 18.8013 7.0005 14.6701 10.8171 30.6572 18.0425 45.2333 3.2409 6.3347 11.6136 8.4293 17.8936 5.4823 19.6715-7.371 39.325-14.799 58.9415-22.3199 6.3919-2.1126 10.8381-9.2977 8.9853-15.9472-3.206-10.8367-8.0769-21.1347-11.6156-31.8614-3.2619-10.2231-2.3895-21.8372 3.3339-31.026 5.3726-9.3157 14.8196-15.0398 23.8788-20.2992 35.1576-20.2093 63.1648-51.8279 80.7995-88.1882 5.8713-12.2797 14.2629-24.4864 27.2866-29.8947 17.3749-7.5399 36.6966-2.7611 54.923-4.7977 5.7773-1.0203 9.5579-6.8913 9.2061-12.5605 0.1459-29.6729 0.056-59.3638 0.056-89.0386 0.6656-6.2787-3.2979-13.1331-9.9107-13.9106-19.0798-1.7418-39.6607 3.0369-57.4424-6.0759-10.948-5.2055-17.8556-16.4099-19.7464-28.1349-5.2047-29.1732-18.1534-56.8095-36.7326-79.8349-20.0802-24.3195-47.3099-42.2134-76.948-52.7153-8.3167-2.6122-14.5957-10.4849-14.6707-19.3189-0.8335-23.8388 2.1676-47.7526 7.78-70.9069 3.3519-12.2247 6.9466-24.3945 10.5203-36.5642C680.9562 216.9059 652.5044 243.4869 635.87 276.4026zM720.0223 460.7416c18.784-6.7794 41.2737 5.2055 46.1996 24.5254 5.5575 18.0418-5.6674 38.9706-23.7848 44.289-12.4651 4.1112-27.0458 0.7595-36.3069-8.5782-9.5009-8.9829-13.1876-23.3202-9.5569-35.8407C699.7043 473.7998 708.8535 464.3901 720.0223 460.7416z"/>
</svg>
