<svg class="icon" height="512" viewBox="0 0 1024 1024" version="1.1" xmlns="http://www.w3.org/2000/svg">
    <path d="M512 65.536C327.68 65.536 180.224 212.992 180.224 397.312c0 217.088 212.992 458.752 299.008 544.768 20.48 20.48 53.248 20.48 69.632 0 86.016-90.112 299.008-331.776 299.008-544.768C843.776 212.992 696.32 65.536 512 65.536zM532.48 897.024c-12.288 12.288-28.672 12.288-36.864 0C409.6 811.008 61.44 434.176 307.2 192.512c49.152-49.152 114.688-81.92 188.416-86.016 167.936-8.192 307.2 122.88 307.2 290.816C802.816 610.304 593.92 835.584 532.48 897.024zM512 229.376c-90.112 0-167.936 73.728-167.936 167.936 0 90.112 73.728 167.936 167.936 167.936s167.936-73.728 167.936-167.936C679.936 307.2 602.112 229.376 512 229.376zM512 520.192c-69.632 0-122.88-57.344-122.88-122.88s57.344-122.88 122.88-122.88c69.632 0 122.88 57.344 122.88 122.88S581.632 520.192 512 520.192z"/>
</svg>
