<svg height="512" viewBox="0 0 1024 1024" version="1.1" xmlns="http://www.w3.org/2000/svg">
    <path d="M876.8 253.44c-5.12-10.24-8.96-15.36-74.24-19.2-30.72-1.28-76.8-1.28-124.16 8.96-111.36 24.32-176.64 90.88-193.28 192-90.88-85.76-272.64-61.44-314.88-53.76-8.96 1.28-30.72 5.12-29.44 29.44v3.84c23.04 101.12 66.56 171.52 131.84 211.2 43.52 26.88 88.32 33.28 120.32 33.28 26.88 0 46.08-5.12 47.36-5.12 14.08-3.84 21.76-17.92 17.92-30.72-3.84-14.08-17.92-21.76-30.72-17.92 0 0-66.56 15.36-129.28-23.04-46.08-28.16-80.64-79.36-101.12-151.04 69.12-8.96 250.88-20.48 282.88 97.28V872.96c0 14.08 11.52 25.6 25.6 25.6s25.6-11.52 25.6-25.6V670.72 531.2c0-33.28 0-51.2-1.28-62.72 3.84-60.16 26.88-104.96 67.84-135.68 71.68-52.48 177.92-48.64 224-44.8-12.8 60.16-39.68 103.68-78.08 131.84-62.72 44.8-139.52 32-140.8 32-14.08-2.56-26.88 6.4-29.44 20.48-2.56 14.08 6.4 26.88 20.48 29.44 3.84 1.28 98.56 17.92 179.2-39.68 56.32-39.68 90.88-103.68 104.96-192l1.28-8.96-2.56-7.68z" />
</svg>
