<svg height="512" viewBox="0 0 1024 1024" version="1.1" xmlns="http://www.w3.org/2000/svg">
    <path d="M882.15083 165.857469c-7.676843-4.897543-17.507746-5.02955-25.2685-0.312109l-714.53788 431.937547a23.918759 23.918759 0 0 0-11.375071 23.448038 23.945365 23.945365 0 0 0 16.752546 19.950377l223.514633 68.345598 29.277813 145.443533a23.981181 23.981181 0 0 0 15.85613 17.975397 23.932062 23.932062 0 0 0 7.628748 1.245364 23.982204 23.982204 0 0 0 15.867385-6.011924l115.660207-102.294804 237.403968 72.594365a23.765263 23.765263 0 0 0 7.006577 1.052982c4.634554 0 9.222035-1.341554 13.173021-3.939729a24.032346 24.032346 0 0 0 10.645455-17.388019l69.315691-629.248378a23.951505 23.951505 0 0 0-10.920723-22.798238m-442.871573 638.599349l-15.963577-79.314417 78.499865 24.009834-62.536288 55.304583z m340.02316-20.537755l-297.390177-90.929966 240.769622-282.43251c4.287653-5.030573 3.701299-12.58769-1.340531-16.875343-5.018294-4.297886-12.598946-3.698229-16.87432 1.342578l-247.499907 290.337551-243.97871-74.594929 627.1506-379.125736-60.836577 552.278355z" />
</svg>
